<?xml version="1.0" standalone="no"?>
<!DOCTYPE svg PUBLIC "-//W3C//DTD SVG 20010904//EN"
 "http://www.w3.org/TR/2001/REC-SVG-20010904/DTD/svg10.dtd">
<svg version="1.0" xmlns="http://www.w3.org/2000/svg"
 width="512.000000pt" height="512.000000pt" viewBox="0 0 512.000000 512.000000"
 preserveAspectRatio="xMidYMid meet">

<g transform="translate(0.000000,512.000000) scale(0.100000,-0.100000)"
fill="#000000" stroke="none">
<path d="M3030 5049 c0 -4 5 -31 10 -60 18 -90 13 -254 -9 -340 -52 -202 -191
-383 -462 -600 -52 -42 -160 -128 -240 -192 -328 -260 -450 -424 -451 -603 0
-133 52 -256 179 -426 76 -100 325 -358 433 -448 l54 -45 -38 70 c-21 39 -78
127 -127 197 -181 258 -230 362 -237 506 -11 225 91 385 423 662 283 237 429
406 522 606 92 201 97 410 13 572 -28 54 -69 114 -70 101z"/>
<path d="M3475 3991 c-233 -80 -394 -156 -555 -261 -125 -82 -273 -231 -318
-320 -116 -232 -72 -443 150 -714 75 -91 101 -159 96 -247 -4 -78 -46 -171
-107 -236 -22 -24 -38 -43 -34 -43 3 0 43 24 87 54 110 73 229 199 269 284 29
60 32 77 32 157 0 106 -11 131 -125 290 -39 55 -87 133 -107 173 -32 64 -36
82 -36 145 0 49 7 86 20 117 49 109 175 238 364 372 85 60 315 208 396 255 59
34 20 27 -132 -26z"/>
<path d="M3822 2364 c-63 -16 -103 -36 -123 -60 -13 -16 -12 -17 16 -10 89 22
139 27 186 17 153 -33 252 -144 252 -281 -1 -81 -26 -148 -86 -232 -72 -100
-189 -200 -337 -287 -125 -73 -155 -94 -143 -98 19 -7 256 75 352 122 397 193
536 496 331 719 -98 106 -289 153 -448 110z"/>
<path d="M1760 2323 c-199 -31 -392 -88 -545 -163 -142 -68 -159 -112 -63
-157 146 -69 473 -105 938 -105 602 -1 1174 70 1332 164 29 17 80 44 113 60
45 22 52 28 29 24 -17 -3 -128 -19 -245 -35 -443 -63 -760 -85 -1219 -85 -371
0 -502 11 -598 49 -119 48 -13 118 323 216 l130 38 -85 -1 c-47 0 -96 -2 -110
-5z"/>
<path d="M1673 1740 c-317 -129 -217 -273 239 -345 65 -11 195 -19 353 -22
280 -6 488 9 737 53 129 22 388 81 396 89 2 2 -20 16 -50 31 -29 14 -75 42
-101 61 l-48 36 -164 -27 c-283 -46 -432 -58 -690 -58 -234 0 -498 19 -576 42
-19 5 -46 21 -58 34 -28 30 -24 59 15 105 14 17 24 31 22 31 -1 0 -35 -14 -75
-30z"/>
<path d="M1804 1206 c-117 -43 -164 -84 -164 -143 0 -65 94 -128 266 -178 140
-41 255 -56 455 -62 210 -6 360 6 546 43 122 24 403 110 403 122 -1 4 -63 36
-138 72 l-137 66 -95 -18 c-323 -58 -670 -64 -978 -16 -70 10 -131 39 -139 64
-2 6 8 26 22 43 15 17 25 31 23 30 -1 0 -30 -10 -64 -23z"/>
<path d="M1183 849 c-282 -59 -512 -193 -489 -284 16 -62 124 -98 416 -139
764 -107 1534 -113 2195 -15 291 42 585 121 716 190 65 35 129 98 129 128 0
25 -35 68 -72 87 l-30 16 16 -23 c53 -76 -25 -145 -219 -197 -462 -122 -1638
-171 -2305 -96 -247 28 -456 78 -512 123 -19 16 -21 22 -11 44 24 52 250 137
404 153 72 7 73 8 44 20 -43 19 -176 16 -282 -7z"/>
<path d="M4325 535 c-169 -142 -642 -261 -1275 -321 -226 -21 -884 -30 -1132
-15 -190 11 -417 34 -510 50 -61 10 -53 -2 18 -28 332 -125 1421 -153 2094
-55 425 62 719 172 805 302 20 31 50 104 42 102 -1 -1 -20 -16 -42 -35z"/>
</g>
</svg>
