<?xml version="1.0" standalone="no"?>
<!DOCTYPE svg PUBLIC "-//W3C//DTD SVG 20010904//EN"
 "http://www.w3.org/TR/2001/REC-SVG-20010904/DTD/svg10.dtd">
<svg version="1.0" xmlns="http://www.w3.org/2000/svg"
 width="512.000000pt" height="512.000000pt" viewBox="0 0 512.000000 512.000000"
 preserveAspectRatio="xMidYMid meet">

<g transform="translate(0.000000,512.000000) scale(0.100000,-0.100000)"
fill="#000000" stroke="none">
<path d="M1355 4603 c-398 -51 -707 -318 -813 -702 l-27 -96 0 -1245 0 -1245
27 -96 c52 -191 164 -367 310 -488 92 -77 263 -163 383 -193 l90 -23 1240 0
1240 0 96 26 c191 54 367 165 488 311 80 96 162 257 192 378 l24 95 0 1240 0
1240 -27 97 c-92 333 -344 585 -676 676 l-97 27 -1210 1 c-665 1 -1223 0
-1240 -3z m2540 -235 c116 -40 199 -92 290 -183 91 -91 143 -174 183 -290 l27
-80 0 -1255 0 -1255 -27 -80 c-40 -116 -92 -199 -183 -290 -91 -91 -174 -143
-290 -183 l-80 -27 -1255 0 -1255 0 -78 27 c-113 38 -211 100 -297 187 -87 88
-139 173 -178 286 l-27 80 0 1255 0 1255 27 80 c83 243 272 420 519 485 72 18
114 19 1309 17 l1235 -2 80 -27z"/>
<path d="M2770 3777 c0 -2 36 -78 79 -168 138 -284 182 -451 183 -694 1 -138
-17 -341 -32 -366 -19 -30 -852 640 -1144 921 -125 119 -124 117 38 -125 115
-171 339 -473 427 -575 32 -38 59 -72 59 -75 0 -10 -410 299 -799 603 -101 79
-185 142 -186 140 -5 -5 190 -273 311 -430 305 -391 619 -713 852 -872 51 -34
53 -36 30 -44 -222 -83 -304 -106 -434 -123 -284 -35 -598 41 -933 226 l-83
47 41 -59 c337 -481 713 -705 1226 -730 257 -12 477 29 762 144 166 67 169 68
263 68 85 0 100 -3 140 -27 50 -29 115 -93 153 -151 18 -26 28 -34 33 -25 4 7
8 78 8 158 0 133 -3 152 -29 229 -29 86 -79 172 -147 253 l-38 46 11 74 c16
100 5 348 -19 463 -87 405 -339 773 -734 1069 -21 16 -38 26 -38 23z"/>
</g>
</svg>
